G04 EAGLE Gerber X2 export*
G75*
%MOMM*%
%FSLAX34Y34*%
%LPD*%
%AMOC8*
5,1,8,0,0,1.08239X$1,22.5*%
G01*
%ADD10P,1.429621X8X112.500000*%
%ADD11C,1.320800*%
%ADD12P,1.429621X8X292.500000*%
%ADD13R,1.498600X1.498600*%
%ADD14C,1.498600*%
%ADD15R,1.676400X1.676400*%
%ADD16C,1.676400*%
%ADD17R,1.308000X1.308000*%
%ADD18C,1.308000*%

G36*
X38658Y10169D02*
X38658Y10169D01*
X38733Y10168D01*
X38830Y10189D01*
X38929Y10201D01*
X39000Y10226D01*
X39074Y10242D01*
X39163Y10285D01*
X39257Y10318D01*
X39321Y10359D01*
X39389Y10392D01*
X39466Y10453D01*
X39550Y10507D01*
X39602Y10562D01*
X39661Y10609D01*
X39723Y10686D01*
X39792Y10758D01*
X39831Y10823D01*
X39878Y10882D01*
X39920Y10972D01*
X39971Y11057D01*
X39994Y11129D01*
X40026Y11198D01*
X40047Y11295D01*
X40077Y11389D01*
X40083Y11464D01*
X40099Y11538D01*
X40097Y11638D01*
X40105Y11736D01*
X40094Y11811D01*
X40092Y11887D01*
X40068Y11983D01*
X40053Y12081D01*
X40025Y12151D01*
X40007Y12225D01*
X39942Y12361D01*
X39924Y12405D01*
X39914Y12420D01*
X39902Y12446D01*
X36794Y17828D01*
X35079Y24228D01*
X35079Y30852D01*
X36794Y37252D01*
X40106Y42989D01*
X44791Y47674D01*
X50528Y50986D01*
X56928Y52701D01*
X63552Y52701D01*
X69952Y50986D01*
X75689Y47674D01*
X80374Y42989D01*
X83686Y37252D01*
X85401Y30852D01*
X85401Y24228D01*
X83686Y17828D01*
X80578Y12446D01*
X80548Y12376D01*
X80509Y12311D01*
X80479Y12217D01*
X80440Y12126D01*
X80426Y12051D01*
X80403Y11979D01*
X80395Y11880D01*
X80377Y11783D01*
X80381Y11707D01*
X80375Y11632D01*
X80390Y11534D01*
X80395Y11435D01*
X80416Y11362D01*
X80427Y11287D01*
X80463Y11195D01*
X80491Y11100D01*
X80528Y11034D01*
X80556Y10963D01*
X80612Y10882D01*
X80660Y10795D01*
X80711Y10739D01*
X80755Y10677D01*
X80828Y10611D01*
X80895Y10537D01*
X80957Y10494D01*
X81013Y10444D01*
X81100Y10396D01*
X81182Y10339D01*
X81252Y10312D01*
X81318Y10275D01*
X81414Y10248D01*
X81506Y10212D01*
X81581Y10201D01*
X81654Y10180D01*
X81804Y10168D01*
X81851Y10161D01*
X81869Y10163D01*
X81898Y10161D01*
X308582Y10161D01*
X308658Y10169D01*
X308733Y10168D01*
X308830Y10189D01*
X308929Y10201D01*
X309000Y10226D01*
X309074Y10242D01*
X309163Y10285D01*
X309257Y10318D01*
X309321Y10359D01*
X309389Y10392D01*
X309466Y10453D01*
X309550Y10507D01*
X309602Y10562D01*
X309661Y10609D01*
X309723Y10686D01*
X309792Y10758D01*
X309831Y10823D01*
X309878Y10882D01*
X309920Y10972D01*
X309971Y11057D01*
X309994Y11129D01*
X310026Y11198D01*
X310047Y11295D01*
X310077Y11389D01*
X310083Y11464D01*
X310099Y11538D01*
X310097Y11638D01*
X310105Y11736D01*
X310094Y11811D01*
X310092Y11887D01*
X310068Y11983D01*
X310053Y12081D01*
X310025Y12151D01*
X310007Y12225D01*
X309942Y12361D01*
X309924Y12405D01*
X309914Y12420D01*
X309902Y12446D01*
X306794Y17828D01*
X305079Y24228D01*
X305079Y30852D01*
X306794Y37252D01*
X310106Y42989D01*
X314791Y47674D01*
X320528Y50986D01*
X326928Y52701D01*
X333552Y52701D01*
X339952Y50986D01*
X345689Y47674D01*
X347239Y46124D01*
X347318Y46061D01*
X347390Y45992D01*
X347454Y45953D01*
X347512Y45907D01*
X347603Y45864D01*
X347689Y45813D01*
X347760Y45790D01*
X347827Y45758D01*
X347925Y45737D01*
X348021Y45706D01*
X348095Y45700D01*
X348168Y45685D01*
X348268Y45687D01*
X348368Y45678D01*
X348442Y45690D01*
X348516Y45691D01*
X348613Y45715D01*
X348713Y45730D01*
X348782Y45758D01*
X348854Y45776D01*
X348943Y45822D01*
X349037Y45859D01*
X349098Y45901D01*
X349164Y45935D01*
X349240Y46001D01*
X349323Y46058D01*
X349373Y46113D01*
X349429Y46161D01*
X349489Y46242D01*
X349556Y46317D01*
X349592Y46382D01*
X349637Y46442D01*
X349676Y46534D01*
X349725Y46622D01*
X349745Y46693D01*
X349775Y46762D01*
X349792Y46860D01*
X349820Y46957D01*
X349828Y47057D01*
X349836Y47105D01*
X349834Y47140D01*
X349839Y47201D01*
X349839Y422799D01*
X349828Y422899D01*
X349826Y422999D01*
X349808Y423072D01*
X349799Y423145D01*
X349766Y423240D01*
X349741Y423337D01*
X349707Y423403D01*
X349682Y423473D01*
X349627Y423558D01*
X349581Y423647D01*
X349533Y423704D01*
X349493Y423766D01*
X349421Y423836D01*
X349356Y423913D01*
X349296Y423957D01*
X349242Y424008D01*
X349156Y424060D01*
X349075Y424120D01*
X349007Y424149D01*
X348943Y424187D01*
X348847Y424218D01*
X348755Y424258D01*
X348682Y424271D01*
X348611Y424294D01*
X348511Y424302D01*
X348412Y424319D01*
X348338Y424316D01*
X348264Y424322D01*
X348164Y424307D01*
X348064Y424301D01*
X347993Y424281D01*
X347919Y424270D01*
X347826Y424233D01*
X347729Y424205D01*
X347664Y424169D01*
X347595Y424141D01*
X347513Y424084D01*
X347425Y424035D01*
X347349Y423970D01*
X347309Y423942D01*
X347285Y423916D01*
X347239Y423876D01*
X345689Y422326D01*
X339952Y419014D01*
X333552Y417299D01*
X326928Y417299D01*
X320528Y419014D01*
X314791Y422326D01*
X310106Y427011D01*
X306794Y432748D01*
X305079Y439148D01*
X305079Y445772D01*
X306794Y452172D01*
X309902Y457554D01*
X309932Y457624D01*
X309971Y457689D01*
X310001Y457783D01*
X310040Y457874D01*
X310054Y457949D01*
X310077Y458021D01*
X310085Y458120D01*
X310103Y458217D01*
X310099Y458293D01*
X310105Y458368D01*
X310090Y458466D01*
X310085Y458565D01*
X310064Y458638D01*
X310053Y458713D01*
X310017Y458805D01*
X309989Y458900D01*
X309952Y458966D01*
X309924Y459037D01*
X309868Y459118D01*
X309820Y459205D01*
X309769Y459261D01*
X309725Y459323D01*
X309652Y459389D01*
X309585Y459463D01*
X309523Y459506D01*
X309467Y459556D01*
X309380Y459604D01*
X309298Y459661D01*
X309228Y459688D01*
X309162Y459725D01*
X309066Y459752D01*
X308974Y459788D01*
X308899Y459799D01*
X308826Y459820D01*
X308676Y459832D01*
X308629Y459839D01*
X308611Y459837D01*
X308582Y459839D01*
X81898Y459839D01*
X81822Y459831D01*
X81747Y459832D01*
X81650Y459811D01*
X81551Y459799D01*
X81480Y459774D01*
X81406Y459758D01*
X81317Y459715D01*
X81223Y459682D01*
X81159Y459641D01*
X81091Y459608D01*
X81014Y459547D01*
X80930Y459493D01*
X80878Y459438D01*
X80819Y459391D01*
X80757Y459314D01*
X80688Y459242D01*
X80649Y459177D01*
X80602Y459118D01*
X80560Y459028D01*
X80509Y458943D01*
X80486Y458871D01*
X80454Y458802D01*
X80433Y458705D01*
X80403Y458611D01*
X80397Y458536D01*
X80381Y458462D01*
X80383Y458362D01*
X80375Y458264D01*
X80386Y458189D01*
X80388Y458113D01*
X80412Y458017D01*
X80427Y457919D01*
X80455Y457849D01*
X80473Y457775D01*
X80538Y457639D01*
X80556Y457595D01*
X80566Y457580D01*
X80578Y457554D01*
X83686Y452172D01*
X85401Y445772D01*
X85401Y439148D01*
X83686Y432748D01*
X80374Y427011D01*
X75689Y422326D01*
X69952Y419014D01*
X63552Y417299D01*
X56928Y417299D01*
X50528Y419014D01*
X44791Y422326D01*
X40106Y427011D01*
X36794Y432748D01*
X35079Y439148D01*
X35079Y445772D01*
X36794Y452172D01*
X39902Y457554D01*
X39932Y457624D01*
X39971Y457689D01*
X40001Y457783D01*
X40040Y457874D01*
X40054Y457949D01*
X40077Y458021D01*
X40085Y458120D01*
X40103Y458217D01*
X40099Y458293D01*
X40105Y458368D01*
X40090Y458466D01*
X40085Y458565D01*
X40064Y458638D01*
X40053Y458713D01*
X40017Y458805D01*
X39989Y458900D01*
X39952Y458966D01*
X39924Y459037D01*
X39868Y459118D01*
X39820Y459205D01*
X39769Y459261D01*
X39725Y459323D01*
X39652Y459389D01*
X39585Y459463D01*
X39523Y459506D01*
X39467Y459556D01*
X39380Y459604D01*
X39298Y459661D01*
X39228Y459688D01*
X39162Y459725D01*
X39066Y459752D01*
X38974Y459788D01*
X38899Y459799D01*
X38826Y459820D01*
X38676Y459832D01*
X38629Y459839D01*
X38611Y459837D01*
X38582Y459839D01*
X11684Y459839D01*
X11658Y459836D01*
X11632Y459838D01*
X11485Y459816D01*
X11338Y459799D01*
X11313Y459791D01*
X11287Y459787D01*
X11149Y459732D01*
X11010Y459682D01*
X10988Y459668D01*
X10963Y459658D01*
X10842Y459573D01*
X10717Y459493D01*
X10699Y459474D01*
X10677Y459459D01*
X10578Y459349D01*
X10475Y459242D01*
X10461Y459220D01*
X10444Y459200D01*
X10372Y459070D01*
X10296Y458943D01*
X10288Y458918D01*
X10275Y458895D01*
X10235Y458752D01*
X10190Y458611D01*
X10188Y458585D01*
X10180Y458560D01*
X10161Y458316D01*
X10161Y11684D01*
X10164Y11658D01*
X10162Y11632D01*
X10184Y11485D01*
X10201Y11338D01*
X10209Y11313D01*
X10213Y11287D01*
X10268Y11149D01*
X10318Y11010D01*
X10332Y10988D01*
X10342Y10963D01*
X10427Y10842D01*
X10507Y10717D01*
X10526Y10699D01*
X10541Y10677D01*
X10651Y10578D01*
X10758Y10475D01*
X10780Y10461D01*
X10800Y10444D01*
X10930Y10372D01*
X11057Y10296D01*
X11082Y10288D01*
X11105Y10275D01*
X11248Y10235D01*
X11389Y10190D01*
X11415Y10188D01*
X11440Y10180D01*
X11684Y10161D01*
X38582Y10161D01*
X38658Y10169D01*
G37*
%LPC*%
G36*
X240386Y142653D02*
X240386Y142653D01*
X239493Y143546D01*
X239493Y161574D01*
X240386Y162467D01*
X258414Y162467D01*
X259307Y161574D01*
X259307Y143546D01*
X258414Y142653D01*
X240386Y142653D01*
G37*
%LPD*%
%LPC*%
G36*
X241275Y375190D02*
X241275Y375190D01*
X240382Y376083D01*
X240382Y392333D01*
X241275Y393226D01*
X257525Y393226D01*
X258418Y392333D01*
X258418Y376083D01*
X257525Y375190D01*
X241275Y375190D01*
G37*
%LPD*%
%LPC*%
G36*
X323629Y66453D02*
X323629Y66453D01*
X319988Y67961D01*
X317201Y70748D01*
X315693Y74389D01*
X315693Y78331D01*
X317201Y81972D01*
X319988Y84759D01*
X323629Y86267D01*
X327571Y86267D01*
X331212Y84759D01*
X333999Y81972D01*
X335507Y78331D01*
X335507Y74389D01*
X333999Y70748D01*
X331212Y67961D01*
X327571Y66453D01*
X323629Y66453D01*
G37*
%LPD*%
%LPC*%
G36*
X247429Y91853D02*
X247429Y91853D01*
X243788Y93361D01*
X241001Y96148D01*
X239493Y99789D01*
X239493Y103731D01*
X241001Y107372D01*
X243788Y110159D01*
X247429Y111667D01*
X251371Y111667D01*
X255012Y110159D01*
X257799Y107372D01*
X259307Y103731D01*
X259307Y99789D01*
X257799Y96148D01*
X255012Y93361D01*
X251371Y91853D01*
X247429Y91853D01*
G37*
%LPD*%
%LPC*%
G36*
X323629Y142653D02*
X323629Y142653D01*
X319988Y144161D01*
X317201Y146948D01*
X315693Y150589D01*
X315693Y154531D01*
X317201Y158172D01*
X319988Y160959D01*
X323629Y162467D01*
X327571Y162467D01*
X331212Y160959D01*
X333999Y158172D01*
X335507Y154531D01*
X335507Y150589D01*
X333999Y146948D01*
X331212Y144161D01*
X327571Y142653D01*
X323629Y142653D01*
G37*
%LPD*%
%LPC*%
G36*
X323629Y91853D02*
X323629Y91853D01*
X319988Y93361D01*
X317201Y96148D01*
X315693Y99789D01*
X315693Y103731D01*
X317201Y107372D01*
X319988Y110159D01*
X323629Y111667D01*
X327571Y111667D01*
X331212Y110159D01*
X333999Y107372D01*
X335507Y103731D01*
X335507Y99789D01*
X333999Y96148D01*
X331212Y93361D01*
X327571Y91853D01*
X323629Y91853D01*
G37*
%LPD*%
%LPC*%
G36*
X247429Y117253D02*
X247429Y117253D01*
X243788Y118761D01*
X241001Y121548D01*
X239493Y125189D01*
X239493Y129131D01*
X241001Y132772D01*
X243788Y135559D01*
X247429Y137067D01*
X251371Y137067D01*
X255012Y135559D01*
X257799Y132772D01*
X259307Y129131D01*
X259307Y125189D01*
X257799Y121548D01*
X255012Y118761D01*
X251371Y117253D01*
X247429Y117253D01*
G37*
%LPD*%
%LPC*%
G36*
X323629Y117253D02*
X323629Y117253D01*
X319988Y118761D01*
X317201Y121548D01*
X315693Y125189D01*
X315693Y129131D01*
X317201Y132772D01*
X319988Y135559D01*
X323629Y137067D01*
X327571Y137067D01*
X331212Y135559D01*
X333999Y132772D01*
X335507Y129131D01*
X335507Y125189D01*
X333999Y121548D01*
X331212Y118761D01*
X327571Y117253D01*
X323629Y117253D01*
G37*
%LPD*%
%LPC*%
G36*
X323806Y298990D02*
X323806Y298990D01*
X320492Y300363D01*
X317955Y302900D01*
X316582Y306214D01*
X316582Y309802D01*
X317955Y313116D01*
X320492Y315653D01*
X323806Y317026D01*
X327394Y317026D01*
X330708Y315653D01*
X333245Y313116D01*
X334618Y309802D01*
X334618Y306214D01*
X333245Y302900D01*
X330708Y300363D01*
X327394Y298990D01*
X323806Y298990D01*
G37*
%LPD*%
%LPC*%
G36*
X247606Y298990D02*
X247606Y298990D01*
X244292Y300363D01*
X241755Y302900D01*
X240382Y306214D01*
X240382Y309802D01*
X241755Y313116D01*
X244292Y315653D01*
X247606Y317026D01*
X251194Y317026D01*
X254508Y315653D01*
X257045Y313116D01*
X258418Y309802D01*
X258418Y306214D01*
X257045Y302900D01*
X254508Y300363D01*
X251194Y298990D01*
X247606Y298990D01*
G37*
%LPD*%
%LPC*%
G36*
X323806Y273590D02*
X323806Y273590D01*
X320492Y274963D01*
X317955Y277500D01*
X316582Y280814D01*
X316582Y284402D01*
X317955Y287716D01*
X320492Y290253D01*
X323806Y291626D01*
X327394Y291626D01*
X330708Y290253D01*
X333245Y287716D01*
X334618Y284402D01*
X334618Y280814D01*
X333245Y277500D01*
X330708Y274963D01*
X327394Y273590D01*
X323806Y273590D01*
G37*
%LPD*%
%LPC*%
G36*
X247606Y273590D02*
X247606Y273590D01*
X244292Y274963D01*
X241755Y277500D01*
X240382Y280814D01*
X240382Y284402D01*
X241755Y287716D01*
X244292Y290253D01*
X247606Y291626D01*
X251194Y291626D01*
X254508Y290253D01*
X257045Y287716D01*
X258418Y284402D01*
X258418Y280814D01*
X257045Y277500D01*
X254508Y274963D01*
X251194Y273590D01*
X247606Y273590D01*
G37*
%LPD*%
%LPC*%
G36*
X247606Y324390D02*
X247606Y324390D01*
X244292Y325763D01*
X241755Y328300D01*
X240382Y331614D01*
X240382Y335202D01*
X241755Y338516D01*
X244292Y341053D01*
X247606Y342426D01*
X251194Y342426D01*
X254508Y341053D01*
X257045Y338516D01*
X258418Y335202D01*
X258418Y331614D01*
X257045Y328300D01*
X254508Y325763D01*
X251194Y324390D01*
X247606Y324390D01*
G37*
%LPD*%
%LPC*%
G36*
X323806Y248190D02*
X323806Y248190D01*
X320492Y249563D01*
X317955Y252100D01*
X316582Y255414D01*
X316582Y259002D01*
X317955Y262316D01*
X320492Y264853D01*
X323806Y266226D01*
X327394Y266226D01*
X330708Y264853D01*
X333245Y262316D01*
X334618Y259002D01*
X334618Y255414D01*
X333245Y252100D01*
X330708Y249563D01*
X327394Y248190D01*
X323806Y248190D01*
G37*
%LPD*%
%LPC*%
G36*
X323806Y349790D02*
X323806Y349790D01*
X320492Y351163D01*
X317955Y353700D01*
X316582Y357014D01*
X316582Y360602D01*
X317955Y363916D01*
X320492Y366453D01*
X323806Y367826D01*
X327394Y367826D01*
X330708Y366453D01*
X333245Y363916D01*
X334618Y360602D01*
X334618Y357014D01*
X333245Y353700D01*
X330708Y351163D01*
X327394Y349790D01*
X323806Y349790D01*
G37*
%LPD*%
%LPC*%
G36*
X247606Y349790D02*
X247606Y349790D01*
X244292Y351163D01*
X241755Y353700D01*
X240382Y357014D01*
X240382Y360602D01*
X241755Y363916D01*
X244292Y366453D01*
X247606Y367826D01*
X251194Y367826D01*
X254508Y366453D01*
X257045Y363916D01*
X258418Y360602D01*
X258418Y357014D01*
X257045Y353700D01*
X254508Y351163D01*
X251194Y349790D01*
X247606Y349790D01*
G37*
%LPD*%
%LPC*%
G36*
X247606Y248190D02*
X247606Y248190D01*
X244292Y249563D01*
X241755Y252100D01*
X240382Y255414D01*
X240382Y259002D01*
X241755Y262316D01*
X244292Y264853D01*
X247606Y266226D01*
X251194Y266226D01*
X254508Y264853D01*
X257045Y262316D01*
X258418Y259002D01*
X258418Y255414D01*
X257045Y252100D01*
X254508Y249563D01*
X251194Y248190D01*
X247606Y248190D01*
G37*
%LPD*%
%LPC*%
G36*
X323806Y324390D02*
X323806Y324390D01*
X320492Y325763D01*
X317955Y328300D01*
X316582Y331614D01*
X316582Y335202D01*
X317955Y338516D01*
X320492Y341053D01*
X323806Y342426D01*
X327394Y342426D01*
X330708Y341053D01*
X333245Y338516D01*
X334618Y335202D01*
X334618Y331614D01*
X333245Y328300D01*
X330708Y325763D01*
X327394Y324390D01*
X323806Y324390D01*
G37*
%LPD*%
%LPC*%
G36*
X323806Y222790D02*
X323806Y222790D01*
X320492Y224163D01*
X317955Y226700D01*
X316582Y230014D01*
X316582Y233602D01*
X317955Y236916D01*
X320492Y239453D01*
X323806Y240826D01*
X327394Y240826D01*
X330708Y239453D01*
X333245Y236916D01*
X334618Y233602D01*
X334618Y230014D01*
X333245Y226700D01*
X330708Y224163D01*
X327394Y222790D01*
X323806Y222790D01*
G37*
%LPD*%
%LPC*%
G36*
X247606Y222790D02*
X247606Y222790D01*
X244292Y224163D01*
X241755Y226700D01*
X240382Y230014D01*
X240382Y233602D01*
X241755Y236916D01*
X244292Y239453D01*
X247606Y240826D01*
X251194Y240826D01*
X254508Y239453D01*
X257045Y236916D01*
X258418Y233602D01*
X258418Y230014D01*
X257045Y226700D01*
X254508Y224163D01*
X251194Y222790D01*
X247606Y222790D01*
G37*
%LPD*%
%LPC*%
G36*
X15928Y406035D02*
X15928Y406035D01*
X15035Y406928D01*
X15035Y421272D01*
X15928Y422165D01*
X30272Y422165D01*
X31165Y421272D01*
X31165Y406928D01*
X30272Y406035D01*
X15928Y406035D01*
G37*
%LPD*%
%LPC*%
G36*
X140049Y301403D02*
X140049Y301403D01*
X135287Y306165D01*
X135287Y312899D01*
X140049Y317661D01*
X146783Y317661D01*
X151545Y312899D01*
X151545Y306165D01*
X146783Y301403D01*
X140049Y301403D01*
G37*
%LPD*%
%LPC*%
G36*
X215073Y192531D02*
X215073Y192531D01*
X210311Y197293D01*
X210311Y204027D01*
X215073Y208789D01*
X221807Y208789D01*
X226569Y204027D01*
X226569Y197293D01*
X221807Y192531D01*
X215073Y192531D01*
G37*
%LPD*%
%LPC*%
G36*
X140049Y377603D02*
X140049Y377603D01*
X135287Y382365D01*
X135287Y389099D01*
X140049Y393861D01*
X146783Y393861D01*
X151545Y389099D01*
X151545Y382365D01*
X146783Y377603D01*
X140049Y377603D01*
G37*
%LPD*%
%LPC*%
G36*
X135783Y101171D02*
X135783Y101171D01*
X132795Y102409D01*
X130509Y104695D01*
X129271Y107683D01*
X129271Y110917D01*
X130509Y113905D01*
X132795Y116191D01*
X135783Y117429D01*
X139017Y117429D01*
X142005Y116191D01*
X144291Y113905D01*
X145529Y110917D01*
X145529Y107683D01*
X144291Y104695D01*
X142005Y102409D01*
X139017Y101171D01*
X135783Y101171D01*
G37*
%LPD*%
%LPC*%
G36*
X173896Y406035D02*
X173896Y406035D01*
X170932Y407263D01*
X168663Y409532D01*
X167435Y412496D01*
X167435Y415704D01*
X168663Y418668D01*
X170932Y420937D01*
X173896Y422165D01*
X177104Y422165D01*
X180068Y420937D01*
X182337Y418668D01*
X183565Y415704D01*
X183565Y412496D01*
X182337Y409532D01*
X180068Y407263D01*
X177104Y406035D01*
X173896Y406035D01*
G37*
%LPD*%
%LPC*%
G36*
X173896Y380635D02*
X173896Y380635D01*
X170932Y381863D01*
X168663Y384132D01*
X167435Y387096D01*
X167435Y390304D01*
X168663Y393268D01*
X170932Y395537D01*
X173896Y396765D01*
X177104Y396765D01*
X180068Y395537D01*
X182337Y393268D01*
X183565Y390304D01*
X183565Y387096D01*
X182337Y384132D01*
X180068Y381863D01*
X177104Y380635D01*
X173896Y380635D01*
G37*
%LPD*%
%LPC*%
G36*
X21496Y380635D02*
X21496Y380635D01*
X18532Y381863D01*
X16263Y384132D01*
X15035Y387096D01*
X15035Y390304D01*
X16263Y393268D01*
X18532Y395537D01*
X21496Y396765D01*
X24704Y396765D01*
X27668Y395537D01*
X29937Y393268D01*
X31165Y390304D01*
X31165Y387096D01*
X29937Y384132D01*
X27668Y381863D01*
X24704Y380635D01*
X21496Y380635D01*
G37*
%LPD*%
%LPC*%
G36*
X173896Y202835D02*
X173896Y202835D01*
X170932Y204063D01*
X168663Y206332D01*
X167435Y209296D01*
X167435Y212504D01*
X168663Y215468D01*
X170932Y217737D01*
X173896Y218965D01*
X177104Y218965D01*
X180068Y217737D01*
X182337Y215468D01*
X183565Y212504D01*
X183565Y209296D01*
X182337Y206332D01*
X180068Y204063D01*
X177104Y202835D01*
X173896Y202835D01*
G37*
%LPD*%
%LPC*%
G36*
X21496Y228235D02*
X21496Y228235D01*
X18532Y229463D01*
X16263Y231732D01*
X15035Y234696D01*
X15035Y237904D01*
X16263Y240868D01*
X18532Y243137D01*
X21496Y244365D01*
X24704Y244365D01*
X27668Y243137D01*
X29937Y240868D01*
X31165Y237904D01*
X31165Y234696D01*
X29937Y231732D01*
X27668Y229463D01*
X24704Y228235D01*
X21496Y228235D01*
G37*
%LPD*%
%LPC*%
G36*
X173896Y75835D02*
X173896Y75835D01*
X170932Y77063D01*
X168663Y79332D01*
X167435Y82296D01*
X167435Y85504D01*
X168663Y88468D01*
X170932Y90737D01*
X173896Y91965D01*
X177104Y91965D01*
X180068Y90737D01*
X182337Y88468D01*
X183565Y85504D01*
X183565Y82296D01*
X182337Y79332D01*
X180068Y77063D01*
X177104Y75835D01*
X173896Y75835D01*
G37*
%LPD*%
%LPC*%
G36*
X173896Y355235D02*
X173896Y355235D01*
X170932Y356463D01*
X168663Y358732D01*
X167435Y361696D01*
X167435Y364904D01*
X168663Y367868D01*
X170932Y370137D01*
X173896Y371365D01*
X177104Y371365D01*
X180068Y370137D01*
X182337Y367868D01*
X183565Y364904D01*
X183565Y361696D01*
X182337Y358732D01*
X180068Y356463D01*
X177104Y355235D01*
X173896Y355235D01*
G37*
%LPD*%
%LPC*%
G36*
X21496Y355235D02*
X21496Y355235D01*
X18532Y356463D01*
X16263Y358732D01*
X15035Y361696D01*
X15035Y364904D01*
X16263Y367868D01*
X18532Y370137D01*
X21496Y371365D01*
X24704Y371365D01*
X27668Y370137D01*
X29937Y367868D01*
X31165Y364904D01*
X31165Y361696D01*
X29937Y358732D01*
X27668Y356463D01*
X24704Y355235D01*
X21496Y355235D01*
G37*
%LPD*%
%LPC*%
G36*
X173896Y329835D02*
X173896Y329835D01*
X170932Y331063D01*
X168663Y333332D01*
X167435Y336296D01*
X167435Y339504D01*
X168663Y342468D01*
X170932Y344737D01*
X173896Y345965D01*
X177104Y345965D01*
X180068Y344737D01*
X182337Y342468D01*
X183565Y339504D01*
X183565Y336296D01*
X182337Y333332D01*
X180068Y331063D01*
X177104Y329835D01*
X173896Y329835D01*
G37*
%LPD*%
%LPC*%
G36*
X21496Y329835D02*
X21496Y329835D01*
X18532Y331063D01*
X16263Y333332D01*
X15035Y336296D01*
X15035Y339504D01*
X16263Y342468D01*
X18532Y344737D01*
X21496Y345965D01*
X24704Y345965D01*
X27668Y344737D01*
X29937Y342468D01*
X31165Y339504D01*
X31165Y336296D01*
X29937Y333332D01*
X27668Y331063D01*
X24704Y329835D01*
X21496Y329835D01*
G37*
%LPD*%
%LPC*%
G36*
X173896Y101235D02*
X173896Y101235D01*
X170932Y102463D01*
X168663Y104732D01*
X167435Y107696D01*
X167435Y110904D01*
X168663Y113868D01*
X170932Y116137D01*
X173896Y117365D01*
X177104Y117365D01*
X180068Y116137D01*
X182337Y113868D01*
X183565Y110904D01*
X183565Y107696D01*
X182337Y104732D01*
X180068Y102463D01*
X177104Y101235D01*
X173896Y101235D01*
G37*
%LPD*%
%LPC*%
G36*
X173896Y304435D02*
X173896Y304435D01*
X170932Y305663D01*
X168663Y307932D01*
X167435Y310896D01*
X167435Y314104D01*
X168663Y317068D01*
X170932Y319337D01*
X173896Y320565D01*
X177104Y320565D01*
X180068Y319337D01*
X182337Y317068D01*
X183565Y314104D01*
X183565Y310896D01*
X182337Y307932D01*
X180068Y305663D01*
X177104Y304435D01*
X173896Y304435D01*
G37*
%LPD*%
%LPC*%
G36*
X21496Y304435D02*
X21496Y304435D01*
X18532Y305663D01*
X16263Y307932D01*
X15035Y310896D01*
X15035Y314104D01*
X16263Y317068D01*
X18532Y319337D01*
X21496Y320565D01*
X24704Y320565D01*
X27668Y319337D01*
X29937Y317068D01*
X31165Y314104D01*
X31165Y310896D01*
X29937Y307932D01*
X27668Y305663D01*
X24704Y304435D01*
X21496Y304435D01*
G37*
%LPD*%
%LPC*%
G36*
X173896Y279035D02*
X173896Y279035D01*
X170932Y280263D01*
X168663Y282532D01*
X167435Y285496D01*
X167435Y288704D01*
X168663Y291668D01*
X170932Y293937D01*
X173896Y295165D01*
X177104Y295165D01*
X180068Y293937D01*
X182337Y291668D01*
X183565Y288704D01*
X183565Y285496D01*
X182337Y282532D01*
X180068Y280263D01*
X177104Y279035D01*
X173896Y279035D01*
G37*
%LPD*%
%LPC*%
G36*
X173896Y177435D02*
X173896Y177435D01*
X170932Y178663D01*
X168663Y180932D01*
X167435Y183896D01*
X167435Y187104D01*
X168663Y190068D01*
X170932Y192337D01*
X173896Y193565D01*
X177104Y193565D01*
X180068Y192337D01*
X182337Y190068D01*
X183565Y187104D01*
X183565Y183896D01*
X182337Y180932D01*
X180068Y178663D01*
X177104Y177435D01*
X173896Y177435D01*
G37*
%LPD*%
%LPC*%
G36*
X21496Y177435D02*
X21496Y177435D01*
X18532Y178663D01*
X16263Y180932D01*
X15035Y183896D01*
X15035Y187104D01*
X16263Y190068D01*
X18532Y192337D01*
X21496Y193565D01*
X24704Y193565D01*
X27668Y192337D01*
X29937Y190068D01*
X31165Y187104D01*
X31165Y183896D01*
X29937Y180932D01*
X27668Y178663D01*
X24704Y177435D01*
X21496Y177435D01*
G37*
%LPD*%
%LPC*%
G36*
X21496Y101235D02*
X21496Y101235D01*
X18532Y102463D01*
X16263Y104732D01*
X15035Y107696D01*
X15035Y110904D01*
X16263Y113868D01*
X18532Y116137D01*
X21496Y117365D01*
X24704Y117365D01*
X27668Y116137D01*
X29937Y113868D01*
X31165Y110904D01*
X31165Y107696D01*
X29937Y104732D01*
X27668Y102463D01*
X24704Y101235D01*
X21496Y101235D01*
G37*
%LPD*%
%LPC*%
G36*
X173896Y228235D02*
X173896Y228235D01*
X170932Y229463D01*
X168663Y231732D01*
X167435Y234696D01*
X167435Y237904D01*
X168663Y240868D01*
X170932Y243137D01*
X173896Y244365D01*
X177104Y244365D01*
X180068Y243137D01*
X182337Y240868D01*
X183565Y237904D01*
X183565Y234696D01*
X182337Y231732D01*
X180068Y229463D01*
X177104Y228235D01*
X173896Y228235D01*
G37*
%LPD*%
%LPC*%
G36*
X173896Y253635D02*
X173896Y253635D01*
X170932Y254863D01*
X168663Y257132D01*
X167435Y260096D01*
X167435Y263304D01*
X168663Y266268D01*
X170932Y268537D01*
X173896Y269765D01*
X177104Y269765D01*
X180068Y268537D01*
X182337Y266268D01*
X183565Y263304D01*
X183565Y260096D01*
X182337Y257132D01*
X180068Y254863D01*
X177104Y253635D01*
X173896Y253635D01*
G37*
%LPD*%
%LPC*%
G36*
X21496Y50435D02*
X21496Y50435D01*
X18532Y51663D01*
X16263Y53932D01*
X15035Y56896D01*
X15035Y60104D01*
X16263Y63068D01*
X18532Y65337D01*
X21496Y66565D01*
X24704Y66565D01*
X27668Y65337D01*
X29937Y63068D01*
X31165Y60104D01*
X31165Y56896D01*
X29937Y53932D01*
X27668Y51663D01*
X24704Y50435D01*
X21496Y50435D01*
G37*
%LPD*%
%LPC*%
G36*
X173896Y152035D02*
X173896Y152035D01*
X170932Y153263D01*
X168663Y155532D01*
X167435Y158496D01*
X167435Y161704D01*
X168663Y164668D01*
X170932Y166937D01*
X173896Y168165D01*
X177104Y168165D01*
X180068Y166937D01*
X182337Y164668D01*
X183565Y161704D01*
X183565Y158496D01*
X182337Y155532D01*
X180068Y153263D01*
X177104Y152035D01*
X173896Y152035D01*
G37*
%LPD*%
%LPC*%
G36*
X21496Y152035D02*
X21496Y152035D01*
X18532Y153263D01*
X16263Y155532D01*
X15035Y158496D01*
X15035Y161704D01*
X16263Y164668D01*
X18532Y166937D01*
X21496Y168165D01*
X24704Y168165D01*
X27668Y166937D01*
X29937Y164668D01*
X31165Y161704D01*
X31165Y158496D01*
X29937Y155532D01*
X27668Y153263D01*
X24704Y152035D01*
X21496Y152035D01*
G37*
%LPD*%
%LPC*%
G36*
X21496Y253635D02*
X21496Y253635D01*
X18532Y254863D01*
X16263Y257132D01*
X15035Y260096D01*
X15035Y263304D01*
X16263Y266268D01*
X18532Y268537D01*
X21496Y269765D01*
X24704Y269765D01*
X27668Y268537D01*
X29937Y266268D01*
X31165Y263304D01*
X31165Y260096D01*
X29937Y257132D01*
X27668Y254863D01*
X24704Y253635D01*
X21496Y253635D01*
G37*
%LPD*%
%LPC*%
G36*
X21496Y202835D02*
X21496Y202835D01*
X18532Y204063D01*
X16263Y206332D01*
X15035Y209296D01*
X15035Y212504D01*
X16263Y215468D01*
X18532Y217737D01*
X21496Y218965D01*
X24704Y218965D01*
X27668Y217737D01*
X29937Y215468D01*
X31165Y212504D01*
X31165Y209296D01*
X29937Y206332D01*
X27668Y204063D01*
X24704Y202835D01*
X21496Y202835D01*
G37*
%LPD*%
%LPC*%
G36*
X173896Y50435D02*
X173896Y50435D01*
X170932Y51663D01*
X168663Y53932D01*
X167435Y56896D01*
X167435Y60104D01*
X168663Y63068D01*
X170932Y65337D01*
X173896Y66565D01*
X177104Y66565D01*
X180068Y65337D01*
X182337Y63068D01*
X183565Y60104D01*
X183565Y56896D01*
X182337Y53932D01*
X180068Y51663D01*
X177104Y50435D01*
X173896Y50435D01*
G37*
%LPD*%
%LPC*%
G36*
X21496Y279035D02*
X21496Y279035D01*
X18532Y280263D01*
X16263Y282532D01*
X15035Y285496D01*
X15035Y288704D01*
X16263Y291668D01*
X18532Y293937D01*
X21496Y295165D01*
X24704Y295165D01*
X27668Y293937D01*
X29937Y291668D01*
X31165Y288704D01*
X31165Y285496D01*
X29937Y282532D01*
X27668Y280263D01*
X24704Y279035D01*
X21496Y279035D01*
G37*
%LPD*%
%LPC*%
G36*
X21496Y126635D02*
X21496Y126635D01*
X18532Y127863D01*
X16263Y130132D01*
X15035Y133096D01*
X15035Y136304D01*
X16263Y139268D01*
X18532Y141537D01*
X21496Y142765D01*
X24704Y142765D01*
X27668Y141537D01*
X29937Y139268D01*
X31165Y136304D01*
X31165Y133096D01*
X29937Y130132D01*
X27668Y127863D01*
X24704Y126635D01*
X21496Y126635D01*
G37*
%LPD*%
%LPC*%
G36*
X252193Y79153D02*
X252193Y79153D01*
X252193Y86937D01*
X253593Y86482D01*
X255125Y85702D01*
X256516Y84691D01*
X257731Y83476D01*
X258742Y82085D01*
X259522Y80553D01*
X259977Y79153D01*
X252193Y79153D01*
G37*
%LPD*%
%LPC*%
G36*
X238823Y79153D02*
X238823Y79153D01*
X239278Y80553D01*
X240058Y82085D01*
X241069Y83476D01*
X242284Y84691D01*
X243675Y85702D01*
X245207Y86482D01*
X246607Y86937D01*
X246607Y79153D01*
X238823Y79153D01*
G37*
%LPD*%
%LPC*%
G36*
X252193Y73567D02*
X252193Y73567D01*
X259977Y73567D01*
X259522Y72167D01*
X258742Y70635D01*
X257731Y69244D01*
X256516Y68029D01*
X255125Y67018D01*
X253593Y66238D01*
X252193Y65783D01*
X252193Y73567D01*
G37*
%LPD*%
%LPC*%
G36*
X245207Y66238D02*
X245207Y66238D01*
X243675Y67018D01*
X242284Y68029D01*
X241069Y69244D01*
X240058Y70635D01*
X239278Y72167D01*
X238823Y73567D01*
X246607Y73567D01*
X246607Y65783D01*
X245207Y66238D01*
G37*
%LPD*%
%LPC*%
G36*
X220471Y177291D02*
X220471Y177291D01*
X220471Y184405D01*
X222228Y184405D01*
X227585Y179048D01*
X227585Y177291D01*
X220471Y177291D01*
G37*
%LPD*%
%LPC*%
G36*
X139431Y136731D02*
X139431Y136731D01*
X139431Y143845D01*
X141188Y143845D01*
X146545Y138488D01*
X146545Y136731D01*
X139431Y136731D01*
G37*
%LPD*%
%LPC*%
G36*
X220471Y173229D02*
X220471Y173229D01*
X227585Y173229D01*
X227585Y171472D01*
X222228Y166115D01*
X220471Y166115D01*
X220471Y173229D01*
G37*
%LPD*%
%LPC*%
G36*
X139431Y132669D02*
X139431Y132669D01*
X146545Y132669D01*
X146545Y130912D01*
X141188Y125555D01*
X139431Y125555D01*
X139431Y132669D01*
G37*
%LPD*%
%LPC*%
G36*
X209295Y177291D02*
X209295Y177291D01*
X209295Y179048D01*
X214652Y184405D01*
X216409Y184405D01*
X216409Y177291D01*
X209295Y177291D01*
G37*
%LPD*%
%LPC*%
G36*
X128255Y136731D02*
X128255Y136731D01*
X128255Y138488D01*
X133612Y143845D01*
X135369Y143845D01*
X135369Y136731D01*
X128255Y136731D01*
G37*
%LPD*%
%LPC*%
G36*
X214652Y166115D02*
X214652Y166115D01*
X209295Y171472D01*
X209295Y173229D01*
X216409Y173229D01*
X216409Y166115D01*
X214652Y166115D01*
G37*
%LPD*%
%LPC*%
G36*
X133612Y125555D02*
X133612Y125555D01*
X128255Y130912D01*
X128255Y132669D01*
X135369Y132669D01*
X135369Y125555D01*
X133612Y125555D01*
G37*
%LPD*%
%LPC*%
G36*
X328076Y386684D02*
X328076Y386684D01*
X328076Y393954D01*
X329452Y393507D01*
X330859Y392790D01*
X332137Y391861D01*
X333253Y390745D01*
X334182Y389467D01*
X334899Y388060D01*
X335346Y386684D01*
X328076Y386684D01*
G37*
%LPD*%
%LPC*%
G36*
X315854Y386684D02*
X315854Y386684D01*
X316301Y388060D01*
X317018Y389467D01*
X317947Y390745D01*
X319063Y391861D01*
X320341Y392790D01*
X321748Y393507D01*
X323124Y393954D01*
X323124Y386684D01*
X315854Y386684D01*
G37*
%LPD*%
%LPC*%
G36*
X328076Y381732D02*
X328076Y381732D01*
X335346Y381732D01*
X334899Y380356D01*
X334182Y378949D01*
X333253Y377671D01*
X332137Y376555D01*
X330859Y375626D01*
X329452Y374909D01*
X328076Y374462D01*
X328076Y381732D01*
G37*
%LPD*%
%LPC*%
G36*
X321748Y374909D02*
X321748Y374909D01*
X320341Y375626D01*
X319063Y376555D01*
X317947Y377671D01*
X317018Y378949D01*
X316301Y380356D01*
X315854Y381732D01*
X323124Y381732D01*
X323124Y374462D01*
X321748Y374909D01*
G37*
%LPD*%
%LPC*%
G36*
X25099Y85899D02*
X25099Y85899D01*
X25099Y92777D01*
X25226Y92757D01*
X26586Y92315D01*
X27859Y91667D01*
X29016Y90826D01*
X30026Y89816D01*
X30867Y88659D01*
X31515Y87386D01*
X31957Y86026D01*
X31977Y85899D01*
X25099Y85899D01*
G37*
%LPD*%
%LPC*%
G36*
X177499Y136699D02*
X177499Y136699D01*
X177499Y143577D01*
X177626Y143557D01*
X178986Y143115D01*
X180259Y142467D01*
X181416Y141626D01*
X182426Y140616D01*
X183267Y139459D01*
X183915Y138186D01*
X184357Y136826D01*
X184377Y136699D01*
X177499Y136699D01*
G37*
%LPD*%
%LPC*%
G36*
X166623Y136699D02*
X166623Y136699D01*
X166643Y136826D01*
X167085Y138186D01*
X167733Y139459D01*
X168574Y140616D01*
X169584Y141626D01*
X170741Y142467D01*
X172014Y143115D01*
X173374Y143557D01*
X173501Y143577D01*
X173501Y136699D01*
X166623Y136699D01*
G37*
%LPD*%
%LPC*%
G36*
X14223Y85899D02*
X14223Y85899D01*
X14243Y86026D01*
X14685Y87386D01*
X15333Y88659D01*
X16174Y89816D01*
X17184Y90826D01*
X18341Y91667D01*
X19614Y92315D01*
X20974Y92757D01*
X21101Y92777D01*
X21101Y85899D01*
X14223Y85899D01*
G37*
%LPD*%
%LPC*%
G36*
X25099Y81901D02*
X25099Y81901D01*
X31977Y81901D01*
X31957Y81774D01*
X31515Y80414D01*
X30867Y79141D01*
X30026Y77984D01*
X29016Y76974D01*
X27859Y76133D01*
X26586Y75485D01*
X25226Y75043D01*
X25099Y75023D01*
X25099Y81901D01*
G37*
%LPD*%
%LPC*%
G36*
X177499Y132701D02*
X177499Y132701D01*
X184377Y132701D01*
X184357Y132574D01*
X183915Y131214D01*
X183267Y129941D01*
X182426Y128784D01*
X181416Y127774D01*
X180259Y126933D01*
X178986Y126285D01*
X177626Y125843D01*
X177499Y125823D01*
X177499Y132701D01*
G37*
%LPD*%
%LPC*%
G36*
X173374Y125843D02*
X173374Y125843D01*
X172014Y126285D01*
X170741Y126933D01*
X169584Y127774D01*
X168574Y128784D01*
X167733Y129941D01*
X167085Y131214D01*
X166643Y132574D01*
X166623Y132701D01*
X173501Y132701D01*
X173501Y125823D01*
X173374Y125843D01*
G37*
%LPD*%
%LPC*%
G36*
X20974Y75043D02*
X20974Y75043D01*
X19614Y75485D01*
X18341Y76133D01*
X17184Y76974D01*
X16174Y77984D01*
X15333Y79141D01*
X14685Y80414D01*
X14243Y81774D01*
X14223Y81901D01*
X21101Y81901D01*
X21101Y75023D01*
X20974Y75043D01*
G37*
%LPD*%
D10*
X137400Y134700D03*
D11*
X137400Y109300D03*
D12*
X218440Y200660D03*
X218440Y175260D03*
X143416Y385732D03*
X143416Y309532D03*
D13*
X249400Y384208D03*
D14*
X249400Y358808D03*
X249400Y333408D03*
X249400Y308008D03*
X249400Y282608D03*
X249400Y257208D03*
X249400Y231808D03*
X325600Y231808D03*
X325600Y257208D03*
X325600Y282608D03*
X325600Y308008D03*
X325600Y333408D03*
X325600Y358808D03*
X325600Y384208D03*
D15*
X249400Y152560D03*
D16*
X249400Y127160D03*
X249400Y101760D03*
X249400Y76360D03*
X325600Y76360D03*
X325600Y101760D03*
X325600Y127160D03*
X325600Y152560D03*
D17*
X23100Y414100D03*
D18*
X23100Y388700D03*
X23100Y363300D03*
X23100Y337900D03*
X23100Y312500D03*
X23100Y287100D03*
X23100Y261700D03*
X23100Y236300D03*
X23100Y210900D03*
X23100Y185500D03*
X23100Y160100D03*
X23100Y134700D03*
X23100Y109300D03*
X23100Y83900D03*
X23100Y58500D03*
X175500Y58500D03*
X175500Y83900D03*
X175500Y109300D03*
X175500Y134700D03*
X175500Y160100D03*
X175500Y185500D03*
X175500Y210900D03*
X175500Y236300D03*
X175500Y261700D03*
X175500Y287100D03*
X175500Y312500D03*
X175500Y337900D03*
X175500Y363300D03*
X175500Y388700D03*
X175500Y414100D03*
M02*
