M48
;GenerationSoftware,Autodesk,EAGLE,8.7.1*%
;CreationDate,2019-04-02T16:55:34Z*%
FMAT,2
ICI,OFF
METRIC,TZ,000.000
T5C0.800
T4C0.813
T3C0.991
T2C1.118
T1C3.000
%
G90
M71
T1
X6024Y2754
X33024Y2754
X6024Y44246
X33024Y44246
T2
X24940Y10176
X24940Y7636
X32560Y7636
X32560Y15256
X32560Y10176
X32560Y12716
X24940Y15256
X24940Y12716
T3
X32560Y28261
X32560Y30801
X32560Y33341
X32560Y35881
X32560Y38421
X24940Y38421
X24940Y35881
X24940Y33341
X24940Y30801
X24940Y28261
X24940Y25721
X24940Y23181
X32560Y23181
X32560Y25721
T4
X13740Y13470
X13740Y10930
X21844Y20066
X14342Y38573
X14342Y30953
X21844Y17526
T5
X2310Y41410
X2310Y38870
X2310Y36330
X2310Y33790
X2310Y31250
X2310Y28710
X2310Y26170
X2310Y23630
X2310Y21090
X2310Y18550
X2310Y16010
X2310Y13470
X2310Y10930
X2310Y8390
X2310Y5850
X17550Y5850
X17550Y8390
X17550Y10930
X17550Y13470
X17550Y16010
X17550Y18550
X17550Y21090
X17550Y23630
X17550Y26170
X17550Y28710
X17550Y31250
X17550Y33790
X17550Y36330
X17550Y38870
X17550Y41410
M30